<svg width="60" height="60" viewBox="0 0 60 60" fill="none" xmlns="http://www.w3.org/2000/svg">
<g clip-path="url(#clip0_2069_2058)">
<path d="M39.7875 16.755C39.1735 16.3346 38.5302 15.9587 37.8625 15.63H37.8875C36.3153 14.9374 34.9734 13.8107 34.0191 12.3822C33.0648 10.9537 32.5378 9.28254 32.5 7.565V6.25H30V41.15C28.0811 40.1237 25.8778 39.7573 23.73 40.1075C18.905 40.75 14.99 44.025 15 47.4075C15.01 50.79 18.945 53.03 23.77 52.39C28.4375 51.775 32.22 48.6875 32.455 45.42H32.5V17.49C34.4032 17.6875 36.2429 18.2865 37.8975 19.2475C40.1423 20.5423 42.0158 22.3934 43.3375 24.6225C44.6424 26.86 45.3815 29.3821 45.4904 31.97C45.5993 34.5579 45.0748 37.1333 43.9625 39.4725L45.165 40C47.3863 36.1668 48.067 31.6323 47.0688 27.3158C46.0707 22.9994 43.4686 19.224 39.79 16.755H39.7875Z" fill="black"/>
</g>
<defs>
<clipPath id="clip0_2069_2058">
<rect width="60" height="60" fill="white"/>
</clipPath>
</defs>
</svg>
